# xmcd
#
# Track frame offsets:
#   150
#   19025
#   31075
#   46730
#   66412
#   79427
#   97100
#   111190
#   124995
#   143870
#   156585
#   175617
#   190175
#   203682
#   215707
#   226642
#   237495
#   249935
#   266985
#   283760
#   299135
#   315332
#
# Disc length: 4400 seconds
#
# Revision: 1
# Processed by: cddbd v1.5.1PL0 Copyright (c) Steve Scherf et al.
# Submitted via: Media_Universe 3.0
#
DISCID=4c112e16
DTITLE=Various Artist - Greatest Country Songs - CD 2
DYEAR=2001
DGENRE=Country
TTITLE0=Kenny Rogers and Dolly Parton - Islands In The Stream
TTITLE1=Dolly Parton - Jolene
TTITLE2=Tanya Tucker - Down To My Last Teardrop
TTITLE3=The Mavericks - Dance The Night Away
TTITLE4=Mary Chapin Carpenter - Let Me Into Your Heart
TTITLE5=The Judds - Love Can Build A Bridge
TTITLE6=Elvis Costello and The Attractions - A Good Year For The Roses
TTITLE7=Don Williams - I'm Just A Country Boy
TTITLE8=Nanci Griffith - From A Distance
TTITLE9=Bobby Bare - Detroit City
TTITLE10=Bobbie Gentry - Ode To Billy Joe
TTITLE11=Bellamy Brothers - If I Said You Had A Beautiful Body (Would You Hold It Against Me)
TTITLE12=Kenny Rogers - I Will Always Love You
TTITLE13=Tammy Wynette - Stand By Your Man
TTITLE14=Neil Diamond - Kentucky Woman
TTITLE15=Roger Miller - King Of The Road
TTITLE16=Johnny Cash and June Carter - Jackson
TTITLE17=Johnny Cash - Riders In The Sky
TTITLE18=Tony Joe White - Polk Salad Annie
TTITLE19=Billy Ray Cirus - Achy Breaky Heart
TTITLE20=The Charlie Daniels Band - The Devil Went Down To Georgia
TTITLE21=Eric Weissberg and Steve Mandell - Duelling Banjos
EXTD=
EXTT0=
EXTT1=
EXTT2=
EXTT3=
EXTT4=
EXTT5=
EXTT6=
EXTT7=
EXTT8=
EXTT9=
EXTT10=
EXTT11=
EXTT12=
EXTT13=
EXTT14=
EXTT15=
EXTT16=
EXTT17=
EXTT18=
EXTT19=
EXTT20=
EXTT21=
PLAYORDER=
